# xmcd
#
# Track frame offsets:
#	150
#	16382
#	38990
#
# Disc length: 774 seconds
#
# Revision: 3
# Processed by: cddbd v1.5.2PL0 Copyright (c) Steve Scherf et al.
# Submitted via: EasyCDDAExtractor 10.2.0.1
#
DISCID=1c030403
DTITLE=Various Artist - Rome wasn't built in a Day CDM
DYEAR=2000
DGENRE=Pop
TTITLE0=Morcheeba - Rome wasn't built in a Day
TTITLE1=Morcheeba - Frogmarched to Freedom
TTITLE2=Morcheeba feat. Biz Markie - In the Hands of the Gods (Tumbleweed Guns
TTITLE2=linger Mix)
EXTD=
EXTT0=
EXTT1=
EXTT2=
PLAYORDER=
